<?xml version="1.0" encoding="UTF-8"?><svg xmlns="http://www.w3.org/2000/svg" xmlns:xlink="http://www.w3.org/1999/xlink" height="151.9" preserveAspectRatio="xMidYMid meet" version="1.0" viewBox="0.0 0.0 668.4 151.9" width="668.4" zoomAndPan="magnify"><defs><clipPath id="a"><path d="M 0 0 L 668.398438 0 L 668.398438 151.910156 L 0 151.910156 Z M 0 0"/></clipPath></defs><g><g clip-path="url(#a)" id="change1_1"><path d="M 0 0 L 0 60.765625 L 30.382812 60.765625 L 30.382812 91.144531 L 60.765625 91.144531 L 60.765625 121.527344 L 91.144531 121.527344 L 91.144531 151.910156 L 243.054688 151.910156 L 243.054688 121.527344 L 273.4375 121.527344 L 273.4375 91.144531 L 303.816406 91.144531 L 303.816406 60.765625 L 364.582031 60.765625 L 364.582031 91.144531 L 394.964844 91.144531 L 394.964844 121.527344 L 425.34375 121.527344 L 425.34375 151.910156 L 577.253906 151.910156 L 577.253906 121.527344 L 607.636719 121.527344 L 607.636719 91.144531 L 638.019531 91.144531 L 638.019531 60.765625 L 668.398438 60.765625 L 668.398438 0 L 0 0" fill="inherit"/></g><g id="change2_1"><path d="M 121.527344 91.144531 L 91.144531 91.144531 L 91.144531 60.765625 L 121.527344 60.765625 L 121.527344 91.144531" fill="#fff"/></g><g id="change2_2"><path d="M 151.910156 121.527344 L 121.527344 121.527344 L 121.527344 91.144531 L 151.910156 91.144531 L 151.910156 121.527344" fill="#fff"/></g><g id="change2_3"><path d="M 91.144531 60.765625 L 60.765625 60.765625 L 60.765625 30.382812 L 91.144531 30.382812 L 91.144531 60.765625" fill="#fff"/></g><g id="change2_4"><path d="M 182.289062 91.144531 L 151.910156 91.144531 L 151.910156 60.765625 L 182.289062 60.765625 L 182.289062 91.144531" fill="#fff"/></g><g id="change2_5"><path d="M 212.671875 121.527344 L 182.289062 121.527344 L 182.289062 91.144531 L 212.671875 91.144531 L 212.671875 121.527344" fill="#fff"/></g><g id="change2_6"><path d="M 151.910156 60.765625 L 121.527344 60.765625 L 121.527344 30.382812 L 151.910156 30.382812 L 151.910156 60.765625" fill="#fff"/></g><g id="change2_7"><path d="M 455.726562 91.144531 L 425.34375 91.144531 L 425.34375 60.765625 L 455.726562 60.765625 L 455.726562 91.144531" fill="#fff"/></g><g id="change2_8"><path d="M 486.109375 121.527344 L 455.726562 121.527344 L 455.726562 91.144531 L 486.109375 91.144531 L 486.109375 121.527344" fill="#fff"/></g><g id="change2_9"><path d="M 425.34375 60.765625 L 394.964844 60.765625 L 394.964844 30.382812 L 425.34375 30.382812 L 425.34375 60.765625" fill="#fff"/></g><g id="change2_10"><path d="M 516.492188 91.144531 L 486.109375 91.144531 L 486.109375 60.765625 L 516.492188 60.765625 L 516.492188 91.144531" fill="#fff"/></g><g id="change2_11"><path d="M 546.871094 121.527344 L 516.492188 121.527344 L 516.492188 91.144531 L 546.871094 91.144531 L 546.871094 121.527344" fill="#fff"/></g><g id="change2_12"><path d="M 486.109375 60.765625 L 455.726562 60.765625 L 455.726562 30.382812 L 486.109375 30.382812 L 486.109375 60.765625" fill="#fff"/></g></g></svg>